<svg width="201" height="225" viewBox="0 0 201 225" fill="none" xmlns="http://www.w3.org/2000/svg">
<g clip-path="url(#clip0_222_770)">
<path d="M29.7183 42.8613L27.2943 43.6029L25.6783 39.8429L22.0336 40.4983L20.3488 37.8766L19.0422 38.7217L21.2772 42.2231L24.7327 41.6022L26.4175 45.5174L30.045 44.3963L29.7183 42.8613Z" fill="#8D0C8A"/>
<path d="M184.255 178.034L181.831 178.775L180.215 175.015L176.57 175.671L174.903 173.049L173.579 173.894L175.814 177.396L179.27 176.775L180.954 180.69L184.582 179.569L184.255 178.034Z" fill="#8D0C8A"/>
<path d="M60.6979 16.4374C54.1307 17.524 52.1708 26.1825 57.6378 30.0461C58.6177 30.736 59.3054 31.7881 59.5805 32.961L60.5776 36.9797C60.8527 38.0836 61.9357 38.808 63.0532 38.6183L65.546 38.2044C66.6635 38.0146 67.4715 36.997 67.3683 35.8586C67.0245 31.7019 66.5947 30.2013 67.9357 28.3385C71.8726 22.9226 67.2652 15.3508 60.6979 16.4374Z" fill="#F7CC7F"/>
<path d="M61.3683 34.0304C60.9386 30.4773 60.3368 26.7172 60.1305 25.6479C56.3655 25.8548 57.7925 21.8705 59.5288 23.4919C60.0274 23.9576 60.2509 24.5785 60.4056 25.2684C61.6606 25.1477 62.8812 24.8027 63.9987 24.2163C63.9471 23.3366 63.844 22.6812 64.1018 22.112C64.4629 21.2669 65.546 21.0254 65.9757 21.8533C66.1477 22.1638 66.1649 22.5605 66.0445 22.8882C65.7866 23.5953 65.0302 24.061 64.3769 24.4232C64.5832 27.2519 64.8411 30.0978 65.2021 32.9093L64.8411 32.961C64.4973 30.2013 64.2222 27.3899 64.0331 24.613C62.9328 25.1649 61.7294 25.5099 60.4916 25.6306C60.7494 26.9932 61.3168 30.6498 61.7122 33.9959L61.3683 34.0304ZM58.3426 24.8027C58.6692 25.1649 59.2366 25.3201 60.0618 25.2856C59.9242 24.682 59.7179 24.13 59.2881 23.7506C58.3598 22.8882 57.7753 24.199 58.3426 24.8027ZM64.4285 22.25C64.2222 22.7157 64.3081 23.3194 64.3425 24.0265C64.8755 23.7161 65.5116 23.3366 65.7007 22.7674C65.8382 22.3707 65.6835 21.8188 65.2881 21.7153C65.2537 21.7153 64.5832 21.9223 64.4285 22.25Z" fill="#FAE0B2"/>
<path d="M59.5461 32.8576C59.5633 32.8921 59.5633 32.9266 59.5805 32.9611L60.5776 36.9798C60.8527 38.0837 61.9357 38.8081 63.0532 38.6184L65.546 38.2045C66.6635 38.0147 67.4715 36.9971 67.3683 35.8587C67.2136 34.0132 67.0417 32.6851 67.0245 31.6157L59.5461 32.8576Z" fill="#96D9C9"/>
<path d="M55.8155 13.4363L53.8556 9.83145C53.6665 9.48649 53.7868 9.03804 54.1479 8.84831C54.4917 8.65858 54.9387 8.77932 55.1278 9.14153L57.0877 12.7464C57.2768 13.0913 57.1564 13.5398 56.7954 13.7295C56.4516 13.9192 56.0046 13.7812 55.8155 13.4363Z" fill="#FAE0B2"/>
<path d="M51.5347 22.1466L47.2539 21.7671C46.8585 21.7326 46.5663 21.3876 46.6006 20.9909C46.635 20.5942 46.9789 20.301 47.3743 20.3355L51.655 20.715C52.0504 20.7495 52.3427 21.0944 52.3083 21.4911C52.2739 21.8878 51.9301 22.1811 51.5347 22.1466Z" fill="#FAE0B2"/>
<path d="M47.2883 35.324C47.0133 35.0481 47.0133 34.5824 47.2883 34.3064C48.337 33.2543 49.5061 32.3229 50.7267 31.495C51.0533 31.2708 51.5003 31.357 51.7238 31.702C51.9473 32.0297 51.8613 32.4781 51.5175 32.7023C50.3657 33.4785 49.2826 34.3581 48.2855 35.3413C48.0104 35.6 47.5634 35.6 47.2883 35.324Z" fill="#FAE0B2"/>
<path d="M66.4056 13.2466C66.0273 13.1431 65.8038 12.7464 65.8898 12.3669C66.3712 10.5386 66.6806 8.65859 66.7666 6.77856C66.7838 6.38186 67.1276 6.0714 67.523 6.10589C67.9184 6.12314 68.2279 6.4681 68.1935 6.8648C68.0904 8.84832 67.7809 10.8318 67.2651 12.7464C67.1792 13.1258 66.7838 13.35 66.4056 13.2466Z" fill="#FAE0B2"/>
<path d="M70.8239 18.7659C70.7035 18.3864 70.927 17.9897 71.3053 17.869L75.7579 16.5236C76.1361 16.4029 76.5316 16.6271 76.6519 17.0066C76.7722 17.386 76.5488 17.7827 76.1705 17.9035L71.7179 19.2488C71.3396 19.3523 70.927 19.1453 70.8239 18.7659Z" fill="#FAE0B2"/>
<path d="M78.1304 30.6498C78.0616 30.6498 77.9928 30.6325 77.9413 30.6153C76.394 30.1841 74.8983 29.5804 73.4886 28.8215C73.1447 28.6318 73.0072 28.2006 73.1963 27.8556C73.3854 27.5106 73.8152 27.3727 74.1591 27.5624C75.4828 28.2695 76.8926 28.8387 78.3367 29.2354C78.7149 29.3389 78.9384 29.7356 78.8352 30.1151C78.7321 30.4428 78.4398 30.6498 78.1304 30.6498Z" fill="#FAE0B2"/>
<path d="M143.356 62.4377L141.104 57.1081L135.448 55.9352C134.812 55.7972 134.588 54.9866 135.087 54.5554L139.453 50.7608L138.817 45.0173C138.749 44.3618 139.453 43.9134 140.021 44.2411L144.955 47.225L150.216 44.8275C150.817 44.5516 151.471 45.0862 151.316 45.7244L150.009 51.3645L153.895 55.642C154.342 56.125 154.032 56.9184 153.379 56.9701L147.637 57.4703L144.783 62.5067C144.456 63.0931 143.614 63.0414 143.356 62.4377Z" fill="#F7CC7F"/>
<path d="M179.115 44.1549L178.204 47.8805L172.049 47.0526L170.02 52.3477L165.327 52.4857L165.396 54.8659L171.688 54.6934L173.596 49.6743L179.992 50.5367L181.384 44.9138L179.115 44.1549Z" fill="#F48C7F"/>
<path d="M124.342 223.017H16.2572C12.1311 223.017 8.77875 219.532 8.77875 215.238V210.615C8.77875 206.321 12.1311 202.836 16.2572 202.836H124.342C119.391 208.459 119.305 217.049 124.136 222.775L124.342 223.017Z" fill="#B75742"/>
<path d="M122.674 205.148H62.7265C58.6005 205.148 55.2481 208.632 55.2481 212.926C55.2481 217.221 58.6005 220.705 62.7265 220.705H122.674C119.872 215.928 119.889 209.908 122.674 205.148Z" fill="#FAE0B2"/>
<path d="M86.3652 188.814C86.5199 188.52 86.2793 188.176 85.9182 188.176H28.7384C24.2513 188.176 20.6238 191.453 20.6238 195.506C20.6238 199.559 24.2513 202.836 28.7384 202.836H85.9354C86.2964 202.836 86.5371 202.491 86.3824 202.198C84.1303 197.955 84.1303 193.039 86.3652 188.814Z" fill="#D39FD3"/>
<path d="M86.0042 189.555H57.6721C52.4114 189.555 48.1479 192.298 48.1479 195.696C48.1479 199.094 52.4114 201.836 57.6721 201.836H86.1933C84.2506 197.921 84.199 193.471 86.0042 189.555Z" fill="#F7CC7F"/>
<path d="M78.6977 192.453H75.0015C74.2107 192.453 73.5574 192.729 73.5574 193.057V193.109H78.6805V192.453H78.6977Z" fill="#B75742"/>
<path d="M81.8438 193.954C81.8438 193.126 80.8811 192.453 79.6948 192.453H74.9499C75.8439 192.453 76.5831 192.953 76.5831 193.591L76.5659 209.649L79.1791 207.58L81.8438 209.649V193.954Z" fill="#F47458"/>
<path d="M75.861 187.658H42.5777C39.6207 187.658 37.2311 184.812 37.2311 181.294C37.2311 177.775 39.6207 174.929 42.5777 174.929H75.8438C73.2994 178.448 73.1963 183.622 75.6031 187.296L75.861 187.658Z" fill="#FAE0B2"/>
<path d="M37.2483 181.294C37.2483 177.775 39.6895 174.929 42.7153 174.929H76.4971C76.6519 174.929 76.7894 174.774 76.7722 174.601C76.7722 174.429 76.6519 174.274 76.4971 174.274H22.9104C19.5751 174.274 16.876 177.413 16.876 181.294C16.876 185.174 19.5751 188.314 22.9104 188.314H76.4971C76.6519 188.314 76.7722 188.176 76.7722 187.986C76.7722 187.796 76.6519 187.658 76.4971 187.658H42.7153C39.6895 187.658 37.2483 184.812 37.2483 181.294Z" fill="#8E5E8E"/>
<path d="M70.0502 178.051H66.354C65.5631 178.051 64.9099 178.31 64.9099 178.637V178.689H70.033V178.051H70.0502Z" fill="#184655"/>
<path d="M73.1963 179.534C73.1963 178.724 72.2335 178.068 71.0473 178.068H66.3024C67.1963 178.068 67.9356 178.568 67.9356 179.189L67.9184 194.937L70.5315 192.919L73.1963 194.937V179.534Z" fill="#8D0C8A"/>
<path d="M128.881 80.8069L133.797 79.5133L130.462 124.065L124.565 124.255L127.54 82.4282C127.591 81.6521 128.124 80.9966 128.881 80.8069Z" fill="#184655"/>
<path d="M130.892 125.324C130.789 125.341 130.668 125.341 130.548 125.324C129.568 125.203 128.846 124.237 128.932 123.151L132.199 81.2553C132.285 80.1687 133.144 79.3753 134.124 79.496C135.104 79.6168 135.826 80.5827 135.74 81.6693L132.474 123.565C132.405 124.531 131.734 125.255 130.892 125.324Z" fill="#F7CC7F"/>
<path d="M85.6948 127.549C85.6948 127.583 85.6948 127.618 85.6948 127.635C85.8495 129.343 87.1733 130.619 88.6346 130.481L130.118 126.756C131.58 126.618 132.663 125.134 132.508 123.427C132.508 123.358 132.491 123.289 132.474 123.22L85.6948 127.549Z" fill="#F7CC7F"/>
<path d="M114.577 172.549C111.861 174.067 103.557 171.411 103.557 171.169C103.437 173.446 94.2563 195.73 94.2563 195.73V202.595C94.2563 202.595 113.167 203.492 112.892 201.819C112.617 200.146 111.603 201.232 107.838 198.059C107.511 197.783 102.199 196.541 103.643 193.402C106.531 187.072 112.669 176.516 114.577 172.549Z" fill="#F7A491"/>
<path d="M93.6374 202.836H114.336C115.076 202.767 115.265 202.146 114.99 201.784C114.439 201.025 110.485 199.214 107.803 198.024C103.162 198.576 94.9955 196.782 94.2391 195.713C92.2964 198.352 93.2248 202.75 93.6374 202.836Z" fill="#770C77"/>
<path d="M89.0987 156.56C88.8236 155.715 106.927 148.005 107.735 148.885C109.162 150.437 97.9353 179.69 97.9353 179.69L110.829 183.639C110.829 183.639 124.239 149.851 123.689 143.676C123.121 137.501 116.416 130.481 101.855 134.966C87.2936 139.467 89.0987 156.56 89.0987 156.56Z" fill="#794F7A"/>
<path d="M126.594 176.395C123.534 175.843 119.58 175.671 116.399 175.619C116.778 178.448 118.583 192.97 118.256 193.867C116.915 197.489 113.924 199.18 113.924 199.18C113.924 199.18 127.987 211.909 128.829 210.443C129.671 208.977 128.21 209.166 127.282 204.32C127.196 203.888 125.167 197.127 125.047 193.471C124.806 186.502 126.491 180.259 126.594 176.395Z" fill="#F7A491"/>
<path d="M122.073 128.877C120.113 127.825 115.024 127.79 109.419 128.153C98.5027 128.86 87.7234 131.016 77.3568 134.465L70.4113 136.777L70.4285 129.636C70.4285 129.636 48.3199 125.928 47.5634 131.43C46.4116 139.709 47.8385 156.508 55.2138 160.251C78.0788 171.893 110.142 141.692 110.262 145.642C110.417 150.954 114.869 170.703 116.021 179.345C119.184 179.396 124.634 179.396 127.007 178.862C127.436 161.924 127.66 131.861 122.073 128.877Z" fill="#8E5E8E"/>
<path d="M113.511 199.473L129.31 212.133C129.929 212.547 130.462 212.185 130.479 211.736C130.548 210.805 128.605 206.89 127.299 204.268C123.362 201.732 118.17 195.126 118.256 193.833C116.606 195.247 113.236 199.145 113.511 199.473Z" fill="#770C77"/>
<path d="M77.735 59.7988C77.202 54.9349 76.6519 50.0364 72.629 46.4833C69.3798 43.6029 65.2366 43.1027 61.1449 44.6551C49.5405 49.036 55.5232 59.3676 40.7383 69.7854C36.1481 73.028 31.0765 75.2357 27.6209 79.5995C22.7729 85.7053 24.6124 93.0357 29.0135 97.9341C50.125 121.374 73.6949 89.724 75.3969 82.1177C76.6519 76.4603 78.0788 62.9379 77.735 59.7988Z" fill="#13375B"/>
<path d="M73.4542 87.1713C71.7351 83.9805 69.9471 81.445 69.9471 81.445C68.1592 78.2541 63.5346 76.6328 63.5346 76.6328C63.5346 76.6328 61.9873 76.6673 60.2166 76.7536C60.1134 77.0468 59.9931 77.2537 59.8899 77.34C59.2195 77.8402 55.4029 77.202 52.9273 78.8751C44.658 85.9985 46.9445 120.494 47.5978 131.395L72.801 131.637C72.801 131.637 69.6205 108.179 74.7436 102.16C78.3023 97.9858 75.9986 91.9145 73.4542 87.1713Z" fill="#9B2F9B"/>
<path d="M62.0905 64.9731C62.0905 64.9731 60.6979 74.908 59.7352 77.3227C58.7724 79.7374 65.0646 84.8946 70.2909 86.4641C75.5172 88.0337 68.6921 81.1345 68.9156 78.5473C69.1391 75.9601 70.0846 63.7485 70.0846 63.7485L62.0905 64.9731Z" fill="#F7A491"/>
<path d="M69.8096 67.2672C69.9643 65.2492 70.0675 63.7659 70.0675 63.7659L62.0733 64.9905C62.0733 64.9905 61.867 66.1633 61.6435 67.8019C64.8927 69.6819 67.8153 69.0782 69.8096 67.2672Z" fill="#F47458"/>
<path d="M64.5833 46.8455C64.5833 46.8455 61.4372 47.5527 59.4945 50.5366C57.5519 53.5205 56.2109 62.2652 62.6234 66.3702C69.0188 70.458 74.0044 64.6799 74.0903 59.0398C74.1591 53.3825 72.9557 45.8451 64.5833 46.8455Z" fill="#F7A491"/>
<path d="M75.5516 57.2633C75.0015 58.6259 73.9184 59.4711 73.1276 59.1434C72.3368 58.8156 72.1305 57.4531 72.6806 56.1077C73.2307 54.7451 74.3138 53.9 75.1047 54.2277C75.8955 54.5381 76.1018 55.9007 75.5516 57.2633Z" fill="#F7A491"/>
<path d="M65.5288 46.6558C65.5288 46.6558 61.5231 55.6937 57.9816 56.4871C54.4573 57.2978 54.5089 61.834 54.5089 61.834C54.5089 61.834 54.5948 51.3473 57.8957 48.9325C61.2137 46.5351 65.5288 46.6558 65.5288 46.6558Z" fill="#13375B"/>
<path d="M59.3913 58.3673C59.8555 59.8333 59.4257 61.2822 58.4458 61.5926C57.4659 61.9031 56.2796 60.9717 55.8155 59.5056C55.3513 58.0396 55.7811 56.5907 56.761 56.2803C57.7581 55.9698 58.9272 56.9012 59.3913 58.3673Z" fill="#F7A491"/>
<path d="M104.485 123.582C102.972 123.03 100.72 122.961 100.755 122.771C100.909 121.961 107.58 124.565 106.686 123.375C106.187 122.719 101.185 120.391 99.9639 120.77C98.7777 121.15 91.0414 123.323 91.0414 123.323L69.8783 118.338C69.8783 118.338 64.5317 106.161 64.0159 95.6919C59.5976 96.2956 56.5891 97.3822 52.7553 99.5209C54.612 109.525 59.0991 125.755 64.0847 128.791C66.1821 130.067 91.1617 127.256 91.1617 127.256C91.1617 127.256 96.6631 126.859 97.5743 126.514C98.262 126.255 100.016 125.255 100.961 124.979C103.127 124.358 106.995 125.91 107.013 125.479C107.013 125.186 106.033 124.134 104.485 123.582Z" fill="#F7A491"/>
<path d="M64.1535 84.5151C63.9472 81.2897 62.7266 78.1851 59.3226 77.1847C57.208 76.5638 54.8355 77.1502 53.1336 78.5473C51.1221 80.2031 50.5548 82.842 50.572 85.343C50.5892 91.0348 50.9846 96.9164 52.0161 102.522C55.8499 100.383 60.3369 99.1069 64.7552 98.5032C64.738 98.4515 64.4114 88.7753 64.1535 84.5151Z" fill="#C977C9"/>
<path d="M-1.43319 90.5865L-34.2351 84.4634C-34.8884 84.3427 -35.3354 83.7045 -35.1979 83.0491L-31.1062 60.8854C-30.9859 60.23 -30.3498 59.7816 -29.6965 59.9195L3.12263 66.0426C3.77591 66.1633 4.2229 66.8015 4.08537 67.4569L-0.023468 89.6033C-0.126617 90.276 -0.762714 90.7072 -1.43319 90.5865Z" fill="#F7CC7F"/>
<path d="M0.0625076 89.7413C-0.109409 90.345 -0.711124 90.7244 -1.33003 90.6037L-34.3554 84.4461C-34.9743 84.3254 -35.4041 83.7735 -35.3354 83.1353L-33.599 63.2829C-33.5646 62.9379 -33.3927 62.6274 -33.1176 62.4205C-32.8426 62.2135 -32.4987 62.1273 -32.1549 62.1962L4.53237 69.0437C4.87621 69.1127 5.16846 69.3024 5.34038 69.5956C5.5123 69.8888 5.56388 70.2338 5.47792 70.5615L0.0625076 89.7413Z" fill="#FAE0B2"/>
<path d="M150.559 17.2135L144.938 18.7486L143.734 11.9184L145.574 11.5907L146.433 16.4029L150.078 15.4025L150.559 17.2135Z" fill="#8D0C8A"/>
<path d="M40.9961 22.5604L5.73576 35.186C4.6011 35.5999 3.3461 34.9962 2.95069 33.8579L-3.565 15.5405C-3.9776 14.4021 -3.37589 13.143 -2.24123 12.7463L33.0191 0.120792C34.1538 -0.29316 35.4088 0.31052 35.8042 1.44889L42.3199 19.7663C42.7325 20.9046 42.1308 22.1465 40.9961 22.5604Z" fill="#D39FD3"/>
<path d="M17.6324 17.8517C18.9218 21.491 17.0307 25.5098 13.4033 26.8034C9.7758 28.097 5.77011 26.1997 4.48073 22.5604C3.19135 18.9211 5.08244 14.9023 8.70991 13.6087C12.3374 12.3151 16.3259 14.2124 17.6324 17.8517Z" fill="white"/>
<path d="M12.0451 16.8686C12.4234 17.938 11.8732 19.1281 10.7901 19.5075C9.72425 19.887 8.53802 19.335 8.1598 18.2484C7.78158 17.179 8.33172 15.9889 9.4148 15.6095C10.4807 15.2473 11.6669 15.7992 12.0451 16.8686Z" fill="#D39FD3"/>
<path d="M15.3976 22.6467L9.19132 24.8717L8.95064 24.1818C8.50365 22.9054 9.15694 21.5083 10.4291 21.0599L12.028 20.4907C13.3002 20.0423 14.6927 20.6977 15.1397 21.974L15.3976 22.6467Z" fill="#D39FD3"/>
<path d="M18.4921 14.0227C18.1139 14.0227 17.7872 13.7812 17.6497 13.4363C17.4778 12.9706 17.7185 12.4531 18.1826 12.2979L33.6037 6.77855C33.7068 6.74405 33.7928 6.72681 33.8959 6.72681C34.2741 6.72681 34.6008 6.96828 34.7383 7.31324C34.9102 7.77893 34.6695 8.29637 34.2054 8.45161L18.7843 13.971C18.6984 14.0055 18.5952 14.0227 18.4921 14.0227Z" fill="white"/>
<path d="M22.6525 17.8863C22.2743 17.8863 21.9476 17.6448 21.8101 17.2998C21.6382 16.8341 21.8788 16.3167 22.343 16.1615L34.3773 11.8495C34.4804 11.815 34.5664 11.7977 34.6695 11.7977C35.0478 11.7977 35.3744 12.0392 35.5119 12.3842C35.5979 12.6084 35.5807 12.8499 35.4776 13.0741C35.3744 13.2983 35.2025 13.4535 34.979 13.5398L22.9447 17.8518C22.8588 17.869 22.7556 17.8863 22.6525 17.8863Z" fill="white"/>
<path d="M95.7863 160.631H10.6355C7.98792 160.631 5.85614 162.787 5.85614 165.426V169.462C5.85614 172.118 8.00512 174.257 10.6355 174.257H95.7863L95.7348 174.205C92.0901 170.427 92.1073 164.408 95.7863 160.631Z" fill="#F47458"/>
<path d="M94.2734 162.649H48.7668C46.1193 162.649 43.9875 164.805 43.9875 167.443C43.9875 170.1 46.1365 172.238 48.7668 172.238H94.2734C92.6058 169.289 92.6058 165.615 94.2734 162.649Z" fill="#FAE0B2"/>
<path d="M165.465 161.027L159.018 144.78C158.691 143.969 159.086 143.038 159.912 142.71L183.138 133.431C183.946 133.103 184.874 133.5 185.201 134.327L191.648 150.575C191.974 151.386 191.579 152.317 190.754 152.645L167.528 161.924C166.72 162.235 165.791 161.838 165.465 161.027Z" fill="#FAE0B2"/>
<path d="M187.367 151.627L181.573 137.035C181.487 136.794 181.591 136.535 181.831 136.449C182.072 136.363 182.33 136.466 182.416 136.708L188.209 151.299C188.295 151.541 188.192 151.8 187.951 151.886C187.728 151.972 187.47 151.869 187.367 151.627Z" fill="#8E5E8E"/>
<path d="M184.616 149.713L179.854 137.725C179.768 137.484 179.871 137.225 180.112 137.139C180.353 137.053 180.611 137.156 180.697 137.398L185.459 149.385C185.545 149.626 185.441 149.885 185.201 149.971C184.96 150.058 184.702 149.937 184.616 149.713Z" fill="#8E5E8E"/>
<path d="M183.929 153.007L178.135 138.415C178.049 138.174 178.152 137.915 178.393 137.829C178.634 137.743 178.891 137.846 178.977 138.087L184.771 152.679C184.857 152.921 184.754 153.179 184.513 153.266C184.272 153.352 184.015 153.248 183.929 153.007Z" fill="#8E5E8E"/>
<path d="M180.868 150.368L176.399 139.105C176.313 138.864 176.416 138.605 176.656 138.519C176.897 138.432 177.155 138.536 177.241 138.777L181.711 150.04C181.797 150.282 181.694 150.541 181.453 150.627C181.229 150.713 180.972 150.61 180.868 150.368Z" fill="#8E5E8E"/>
<path d="M187.212 135.483L187.092 135.19C187.04 135.086 186.937 135.035 186.834 135.069L184.633 135.949C184.53 135.983 184.479 136.104 184.53 136.225L184.651 136.518C184.702 136.621 184.805 136.673 184.909 136.639L187.109 135.759C187.212 135.707 187.264 135.587 187.212 135.483Z" fill="#355389"/>
<path d="M187.711 136.725L187.59 136.432C187.539 136.328 187.436 136.276 187.333 136.311L185.132 137.191C185.029 137.225 184.977 137.346 185.029 137.467L185.149 137.76C185.201 137.863 185.304 137.915 185.407 137.881L187.608 137.001C187.711 136.966 187.762 136.846 187.711 136.725Z" fill="#355389"/>
<path d="M188.209 137.984L188.089 137.691C188.055 137.587 187.934 137.536 187.831 137.57L185.631 138.45C185.527 138.484 185.476 138.605 185.527 138.726L185.648 139.019C185.699 139.122 185.802 139.174 185.906 139.14L188.106 138.26C188.209 138.226 188.261 138.105 188.209 137.984Z" fill="#355389"/>
<path d="M188.708 139.243L188.588 138.95C188.536 138.846 188.433 138.795 188.33 138.829L186.129 139.709C186.026 139.743 185.974 139.864 186.026 139.985L186.146 140.278C186.198 140.381 186.301 140.433 186.404 140.399L188.605 139.519C188.708 139.467 188.759 139.347 188.708 139.243Z" fill="#355389"/>
<path d="M189.206 140.502L189.086 140.209C189.035 140.106 188.931 140.054 188.828 140.088L186.628 140.968C186.525 141.002 186.473 141.123 186.525 141.244L186.645 141.537C186.696 141.641 186.8 141.692 186.903 141.658L189.103 140.778C189.206 140.726 189.258 140.606 189.206 140.502Z" fill="#355389"/>
<path d="M189.722 141.761L189.602 141.468C189.55 141.365 189.447 141.313 189.344 141.347L187.143 142.227C187.04 142.262 186.989 142.382 187.04 142.503L187.161 142.796C187.212 142.9 187.315 142.951 187.419 142.917L189.619 142.037C189.705 141.986 189.757 141.865 189.722 141.761Z" fill="#355389"/>
<path d="M190.221 143.02L190.1 142.727C190.049 142.624 189.946 142.572 189.843 142.606L187.642 143.486C187.539 143.521 187.487 143.641 187.539 143.762L187.659 144.055C187.711 144.159 187.814 144.211 187.917 144.176L190.118 143.296C190.204 143.245 190.255 143.124 190.221 143.02Z" fill="#355389"/>
<path d="M190.719 144.28L190.599 143.986C190.547 143.883 190.444 143.831 190.341 143.866L188.141 144.745C188.037 144.78 187.986 144.901 188.037 145.021L188.158 145.314C188.209 145.418 188.313 145.47 188.416 145.435L190.616 144.556C190.702 144.504 190.754 144.383 190.719 144.28Z" fill="#355389"/>
<path d="M191.218 145.539L191.098 145.245C191.046 145.142 190.943 145.09 190.84 145.125L188.639 146.004C188.536 146.039 188.484 146.16 188.536 146.28L188.656 146.573C188.708 146.677 188.811 146.729 188.914 146.694L191.115 145.815C191.201 145.763 191.252 145.642 191.218 145.539Z" fill="#355389"/>
<path d="M191.716 146.798L191.596 146.505C191.545 146.401 191.441 146.349 191.338 146.384L189.138 147.263C189.035 147.298 188.983 147.419 189.035 147.539L189.155 147.833C189.206 147.936 189.31 147.988 189.413 147.953L191.613 147.074C191.716 147.022 191.751 146.901 191.716 146.798Z" fill="#355389"/>
<path d="M192.215 148.04L192.095 147.746C192.06 147.643 191.94 147.591 191.837 147.626L189.636 148.505C189.533 148.54 189.482 148.661 189.533 148.781L189.653 149.074C189.705 149.178 189.808 149.23 189.911 149.195L192.112 148.316C192.215 148.281 192.249 148.16 192.215 148.04Z" fill="#355389"/>
<path d="M192.714 149.299L192.593 149.006C192.542 148.902 192.438 148.85 192.335 148.885L190.135 149.764C190.032 149.799 189.98 149.92 190.032 150.04L190.152 150.334C190.186 150.437 190.307 150.489 190.41 150.454L192.61 149.575C192.714 149.54 192.748 149.419 192.714 149.299Z" fill="#355389"/>
<path d="M198.8 148.005L189.585 161.165C189.568 161.2 189.55 161.234 189.533 161.269L188.588 164.166C188.484 164.511 188.863 164.787 189.155 164.563L191.613 162.7C191.648 162.683 191.665 162.649 191.699 162.614L200.948 149.419C201.069 149.247 201.017 149.023 200.845 148.902L199.298 147.902C199.126 147.815 198.92 147.85 198.8 148.005Z" fill="#B75742"/>
<path d="M191.699 162.631L191.682 162.666L189.31 164.46L188.656 164.028L189.55 161.286C190.221 161.665 191.063 162.062 191.699 162.631Z" fill="#F7CC7F"/>
<path d="M105.431 5.46765C106.755 6.53703 109.058 9.95213 112.015 12.3496C113.735 13.7467 115.058 13.4017 117.259 13.6604C127.694 14.9195 124.858 17.0583 126.113 17.2825C125.752 18.1104 122.502 25.0269 121.901 26.4412C121.333 27.7348 120.371 28.304 118.961 28.1143C116.812 27.821 114.628 27.5968 112.497 27.1311C107.047 25.941 104.021 23.2158 100.119 19.9042C99.0871 19.0246 98.8292 17.9207 99.3622 16.6788C101.872 10.8663 105.156 6.00234 105.431 5.46765Z" fill="#8E5E8E"/>
<path d="M127.23 25.6133C127.179 27.8901 127.35 28.3558 126.388 28.0108C125.803 27.8038 125.236 27.5279 124.669 27.2519C124.273 27.0449 124.256 26.7862 124.583 26.4585C125.047 25.9928 125.528 25.5444 125.992 25.0787C125.648 24.1818 126.044 23.1469 126.869 22.6467C127.041 22.5432 126.921 22.7502 128.365 19.4041C123.568 18.8176 120.164 18.4037 114.302 17.6793C112.737 17.4895 111.345 16.8686 110.124 15.851C105.929 12.3324 101.752 8.8138 97.5743 5.31246C97.0069 4.82952 96.9382 4.1396 97.3852 3.60491C97.729 3.19096 98.1932 3.17371 98.6745 3.2427C100.015 3.41518 113.133 5.05374 114.457 5.20898C116.21 5.41595 117.74 6.07137 119.098 7.20974C123.207 10.6593 127.333 14.1089 131.459 17.5585C132.027 18.0242 132.181 18.4727 131.975 18.9901C131.752 19.5765 131.287 19.8525 130.565 19.68C130.05 19.5593 129.809 19.7318 129.637 20.2147C128.829 22.388 128.262 22.8709 128.468 23.6816C128.623 24.2852 127.901 25.3374 127.23 25.6133Z" fill="#D39FD3"/>
<path d="M148.995 180.552L151.385 182.846C157.041 188.262 161.648 194.661 164.983 201.75L165.344 202.526C165.344 202.526 171.602 203.078 172.479 197.403C166.995 191.177 162.473 184.536 158.743 177.154L157.608 174.498L148.995 180.552Z" fill="#8E5E8E"/>
<path d="M157.608 174.498C157.917 174.946 156.233 176.654 153.86 178.31C151.488 179.966 149.287 180.983 148.995 180.535C148.685 180.086 150.37 178.361 152.76 176.706C155.132 175.033 157.299 174.049 157.608 174.498Z" fill="#D39FD3"/>
<path d="M157.625 174.515C157.625 174.515 152.846 178.551 150.886 178.965L151.488 179.793C152.21 179.396 153.018 178.896 153.86 178.31C156.215 176.654 157.883 174.981 157.625 174.515Z" fill="#355389"/>
<path d="M163.986 186.261C163.986 186.951 163.728 189.969 158.743 191.229C159.069 191.677 159.396 192.125 159.705 192.591C162.869 191.66 164.278 190.021 164.932 188.779C165.035 188.59 165.155 188.314 165.241 188.124C164.811 187.503 164.399 186.882 163.986 186.261Z" fill="#B75742"/>
<path d="M159.19 190.332L151.832 190.073L153.568 191.556L152.536 193.436L159.482 191.66L159.19 190.332Z" fill="#B75742"/>
<path d="M159.843 192.039L157.247 196.61L159.069 195.903L159.791 197.352L161.012 192.557L159.843 192.039Z" fill="#B75742"/>
<path d="M160.84 193.281C159.551 193.367 158.433 192.367 158.33 191.039C158.244 189.711 159.207 188.555 160.496 188.452C161.786 188.365 162.903 189.366 163.006 190.694C163.109 192.039 162.147 193.195 160.84 193.281Z" fill="#F47458"/>
<path d="M176.45 89.7586L160.978 75.9085C159.98 75.0116 160.393 73.1488 161.786 72.3726L174.129 65.3527C174.92 64.9043 175.814 64.9388 176.381 65.4562L191.854 79.3063C192.851 80.2032 192.439 82.066 191.046 82.8422L178.702 89.8621C177.911 90.3106 177.017 90.2761 176.45 89.7586Z" fill="#D39FD3"/>
<path d="M175.711 78.7372L174.422 68.0952C174.37 67.6812 174.662 67.25 175.075 67.1293C175.487 66.9913 175.866 67.2328 175.917 67.6295L177.103 77.4264L188.828 80.2723C189.206 80.3585 189.396 80.7725 189.224 81.2037C189.052 81.6176 188.622 81.8763 188.227 81.7901L175.711 78.7372Z" fill="white"/>
<path d="M167.167 111.198L170.45 112.543L173.098 110.059L176.674 111.836L178.685 108.317L182.811 110.146L185.063 107.145L189.327 108.231L188.914 109.852L185.717 109.042L183.344 112.198L179.373 110.456L177.344 114.009L173.39 112.077L170.811 114.475L167.768 113.233L166.393 115.182L165.035 114.216L167.167 111.198Z" fill="#9B2F9B"/>
</g>
<defs>
<clipPath id="clip0_222_770">
<rect width="251" height="225" fill="white" transform="translate(-50)"/>
</clipPath>
</defs>
</svg>
