<svg width="44" height="44" viewBox="0 0 44 44" fill="none" xmlns="http://www.w3.org/2000/svg">
<circle cx="22" cy="22" r="22" fill="#DAC0D9"/>
<path d="M22 32C22.6193 32.0008 23.2235 31.8086 23.7285 31.4502C24.2335 31.0917 24.6143 30.5849 24.818 30H19.182C19.3857 30.5849 19.7665 31.0917 20.2715 31.4502C20.7765 31.8086 21.3807 32.0008 22 32ZM29 24.586V20C29 16.783 26.815 14.073 23.855 13.258C23.562 12.52 22.846 12 22 12C21.154 12 20.438 12.52 20.145 13.258C17.185 14.074 15 16.783 15 20V24.586L13.293 26.293C13.2 26.3857 13.1262 26.4959 13.0759 26.6172C13.0256 26.7386 12.9998 26.8687 13 27V28C13 28.2652 13.1054 28.5196 13.2929 28.7071C13.4804 28.8946 13.7348 29 14 29H30C30.2652 29 30.5196 28.8946 30.7071 28.7071C30.8946 28.5196 31 28.2652 31 28V27C31.0002 26.8687 30.9744 26.7386 30.9241 26.6172C30.8738 26.4959 30.8 26.3857 30.707 26.293L29 24.586Z" fill="#8D0C8A"/>
</svg>
