<svg width="16" height="17" viewBox="0 0 16 17" fill="none" xmlns="http://www.w3.org/2000/svg">
<path fill-rule="evenodd" clip-rule="evenodd" d="M12.0271 5.23196C12.2308 5.0623 12.4935 4.98047 12.7576 5.00448C13.0216 5.02848 13.2653 5.15634 13.4351 5.35996L15.5181 7.85996C15.6803 8.06447 15.7562 8.32432 15.7294 8.58401C15.7027 8.84369 15.5755 9.08262 15.3749 9.24975C15.1743 9.41687 14.9164 9.49895 14.6561 9.47843C14.3959 9.45792 14.154 9.33645 13.9821 9.13996L11.8991 6.63996C11.7294 6.43625 11.6476 6.17349 11.6716 5.90946C11.6956 5.64544 11.8235 5.40175 12.0271 5.23196Z" fill="#8D0C8A"/>
<path fill-rule="evenodd" clip-rule="evenodd" d="M12.0269 11.768C11.8232 11.5984 11.6951 11.3547 11.6709 11.0907C11.6467 10.8267 11.7284 10.5638 11.8979 10.36L13.9819 7.86C14.0648 7.75555 14.1677 7.66872 14.2847 7.60464C14.4016 7.54055 14.5302 7.5005 14.6628 7.48683C14.7955 7.47317 14.9295 7.48617 15.057 7.52507C15.1846 7.56397 15.303 7.62798 15.4055 7.71335C15.5079 7.79871 15.5922 7.9037 15.6535 8.02213C15.7148 8.14057 15.7517 8.27006 15.7622 8.40299C15.7727 8.53592 15.7565 8.6696 15.7145 8.79617C15.6726 8.92274 15.6057 9.03965 15.5179 9.14001L13.4349 11.64C13.2652 11.8436 13.0215 11.9715 12.7574 11.9955C12.4934 12.0195 12.2307 11.9377 12.0269 11.768Z" fill="#8D0C8A"/>
<path fill-rule="evenodd" clip-rule="evenodd" d="M14.5 8.5C14.5 8.76522 14.3946 9.01957 14.2071 9.20711C14.0196 9.39464 13.7652 9.5 13.5 9.5H7C6.73478 9.5 6.48043 9.39464 6.29289 9.20711C6.10536 9.01957 6 8.76522 6 8.5C6 8.23478 6.10536 7.98043 6.29289 7.79289C6.48043 7.60536 6.73478 7.5 7 7.5H13.5C13.7652 7.5 14.0196 7.60536 14.2071 7.79289C14.3946 7.98043 14.5 8.23478 14.5 8.5ZM0 1.5C0 1.23478 0.105357 0.98043 0.292893 0.792893C0.48043 0.605357 0.734784 0.5 1 0.5H10C10.2652 0.5 10.5196 0.605357 10.7071 0.792893C10.8946 0.98043 11 1.23478 11 1.5C11 1.76522 10.8946 2.01957 10.7071 2.20711C10.5196 2.39464 10.2652 2.5 10 2.5H1C0.734784 2.5 0.48043 2.39464 0.292893 2.20711C0.105357 2.01957 0 1.76522 0 1.5ZM0 15.5C0 15.2348 0.105357 14.9804 0.292893 14.7929C0.48043 14.6054 0.734784 14.5 1 14.5H10C10.2652 14.5 10.5196 14.6054 10.7071 14.7929C10.8946 14.9804 11 15.2348 11 15.5C11 15.7652 10.8946 16.0196 10.7071 16.2071C10.5196 16.3946 10.2652 16.5 10 16.5H1C0.734784 16.5 0.48043 16.3946 0.292893 16.2071C0.105357 16.0196 0 15.7652 0 15.5Z" fill="#8D0C8A"/>
<path fill-rule="evenodd" clip-rule="evenodd" d="M10 0.5C10.2652 0.5 10.5196 0.605357 10.7071 0.792893C10.8946 0.98043 11 1.23478 11 1.5V5.5C11 5.76522 10.8946 6.01957 10.7071 6.20711C10.5196 6.39464 10.2652 6.5 10 6.5C9.73478 6.5 9.48043 6.39464 9.29289 6.20711C9.10536 6.01957 9 5.76522 9 5.5V1.5C9 1.23478 9.10536 0.98043 9.29289 0.792893C9.48043 0.605357 9.73478 0.5 10 0.5ZM10 10.5C10.2652 10.5 10.5196 10.6054 10.7071 10.7929C10.8946 10.9804 11 11.2348 11 11.5V15.5C11 15.7652 10.8946 16.0196 10.7071 16.2071C10.5196 16.3946 10.2652 16.5 10 16.5C9.73478 16.5 9.48043 16.3946 9.29289 16.2071C9.10536 16.0196 9 15.7652 9 15.5V11.5C9 11.2348 9.10536 10.9804 9.29289 10.7929C9.48043 10.6054 9.73478 10.5 10 10.5ZM1 0.5C1.26522 0.5 1.51957 0.605357 1.70711 0.792893C1.89464 0.98043 2 1.23478 2 1.5V15.5C2 15.7652 1.89464 16.0196 1.70711 16.2071C1.51957 16.3946 1.26522 16.5 1 16.5C0.734784 16.5 0.48043 16.3946 0.292893 16.2071C0.105357 16.0196 0 15.7652 0 15.5V1.5C0 1.23478 0.105357 0.98043 0.292893 0.792893C0.48043 0.605357 0.734784 0.5 1 0.5Z" fill="#8D0C8A"/>
</svg>
