<svg width="32" height="12" viewBox="0 0 32 12" fill="none" xmlns="http://www.w3.org/2000/svg">
<path d="M31 6.82837C31.2761 6.82837 31.5 6.60451 31.5 6.32837C31.5 6.05223 31.2761 5.82837 31 5.82837V6.82837ZM0 6.82837H31V5.82837H0V6.82837Z" fill="#8D0C8A"/>
<path d="M31 6.82837C31.2761 6.82837 31.5 6.60451 31.5 6.32837C31.5 6.05223 31.2761 5.82837 31 5.82837V6.82837ZM0 6.82837H31V5.82837H0V6.82837Z" fill="#8D0C8A"/>
<line x1="25.8181" y1="11.3032" x2="31.4749" y2="5.64633" stroke="#8D0C8A"/>
<line x1="25.8181" y1="11.3032" x2="31.4749" y2="5.64633" stroke="#8D0C8A"/>
<line x1="25.5252" y1="0.646447" x2="31.182" y2="6.3033" stroke="#8D0C8A"/>
<line x1="25.5252" y1="0.646447" x2="31.182" y2="6.3033" stroke="#8D0C8A"/>
</svg>
