<svg width="355" height="271" viewBox="0 0 355 271" fill="none" xmlns="http://www.w3.org/2000/svg">
<path d="M499.275 161.654C504.649 141.437 497.227 118.149 480.336 104.842C474.706 100.492 468.052 96.9092 462.678 92.047C449.882 80.2753 454.232 64.1532 443.996 51.8697C411.493 11.4364 361.589 7.34193 319.361 24.7436C286.348 38.5625 251.03 40.6098 215.457 34.9798C188.329 30.6294 161.969 21.4168 134.586 19.1136C112.832 17.0664 89.5436 19.3695 73.9323 35.4917C67.0224 42.657 60.8802 50.8461 52.4348 56.476C42.1979 63.1296 29.4018 65.1768 19.6768 72.3422C7.13657 80.7871 0.994435 96.1415 0.738513 110.984C0.482591 125.827 5.34511 140.413 11.2313 153.976C16.6057 166.26 23.0037 178.543 23.2597 191.851C23.5156 210.532 17.2132 227.622 8 244C-3.77242 264.473 15.7157 299.075 28 319.036C38.4928 335.926 23.5156 330.552 44.5012 333.623C88.5198 339.765 128.7 323.642 171.95 319.036C210.339 314.942 248.983 321.851 286.859 327.993C331.39 335.158 390.764 341.812 430.432 314.942C444.507 305.473 454.744 291.398 459.351 275.532C463.19 262.481 462.934 248.662 465.237 235.099C467.54 221.28 472.659 207.717 480.336 195.689C485.967 186.477 493.133 178.288 497.227 168.307C497.739 166.004 498.507 163.957 499.275 161.654Z" fill="#DAC0D9"/>
<g clip-path="url(#clip0_0_1)">
<path d="M65.5648 221.027H144.015C149.364 221.027 153.128 215.891 151.742 210.558L114.299 81.774C113.309 78.2187 110.139 75.8484 106.573 75.8484H27.9243C22.5754 75.8484 18.8114 80.984 20.1981 86.317L57.6404 215.101C58.8291 218.657 61.9988 221.027 65.5648 221.027Z" fill="#1B2122"/>
<path d="M76.2626 221.027H144.808C150.157 221.027 153.921 215.891 152.534 210.558L114.894 81.774C113.903 78.2187 110.733 75.8484 107.167 75.8484H38.8202C33.4713 75.8484 29.7073 80.984 31.094 86.317L68.5364 215.101C69.725 218.657 72.6966 221.027 76.2626 221.027Z" fill="#ABADD2"/>
<path d="M89.5358 221.027H172.543C176.505 221.027 179.477 217.867 179.477 214.114C179.477 210.163 176.307 207.2 172.543 207.2H89.5358C85.5736 207.2 82.602 210.361 82.602 214.114C82.4039 217.867 85.5736 221.027 89.5358 221.027Z" fill="#1B2122"/>
<path d="M67.7439 221.027H150.751C154.713 221.027 157.685 217.867 157.685 214.114C157.685 210.163 154.515 207.2 150.751 207.2H67.7439C63.7818 207.2 60.8102 210.361 60.8102 214.114C60.6121 217.867 63.7818 221.027 67.7439 221.027Z" fill="#1B2122"/>
<path d="M119.648 168.289L128.761 175.992C125.988 192.386 117.271 207.2 133.912 207.2H163.43V271L196.514 271.197L198.297 192.386C198.495 179.152 187.995 168.486 174.722 168.486L119.648 168.289Z" fill="#8D0C8A"/>
<path d="M78.0455 168.289L76.6588 175.794C73.8853 192.189 86.5642 207.003 103.205 207.003H111.13V271H144.412L146.195 192.386C146.393 179.152 135.893 168.486 122.62 168.486L78.0455 168.289Z" fill="#B051AE"/>
<path d="M160.26 139.055L204.636 148.536L207.212 157.425L148.77 158.215L144.213 134.117L160.26 139.055Z" fill="#BF6F62"/>
<path d="M197.901 147.944C197.901 147.944 207.014 142.413 216.127 144.784C222.07 146.364 228.013 152.092 227.419 158.017L191.165 157.622L197.901 147.944Z" fill="#BF6F62"/>
<path d="M162.637 107.057L167.788 144.981C167.788 144.981 145.6 156.635 145.996 155.252C146.393 153.87 141.044 107.057 141.044 107.057H162.637Z" fill="#BF6F62"/>
<path d="M142.827 75.6509C142.827 75.6509 159.072 78.2187 162.836 92.0452C167.788 110.217 169.571 112.785 169.571 112.785L144.808 116.34L142.827 75.6509Z" fill="white"/>
<path d="M111.526 70.9104L142.827 75.6509C145.996 76.046 148.374 78.8113 148.374 81.9716L149.166 156.24L79.0361 156.437L74.2815 91.6502L76.8569 82.9592C78.0455 78.8113 81.6115 75.8484 85.7717 75.0584L111.526 70.9104Z" fill="white"/>
<path d="M90.9225 112.588L77.8474 146.364L57.4424 128.784L65.3667 104.489L90.9225 112.588Z" fill="#BF6F62"/>
<path d="M103.601 73.6757C103.601 73.6757 79.2342 73.4782 73.0929 80.589C65.3667 89.675 56.4518 112.785 56.4518 112.785L96.0733 121.476L103.601 73.6757Z" fill="white"/>
<path d="M80.0266 140.636L125.789 150.709L123.808 160.783L69.725 161.178C69.725 161.178 45.5559 156.24 57.4423 128.587L80.0266 140.636Z" fill="#BF6F62"/>
<path d="M125.789 150.907C125.789 150.907 136.487 146.759 145.402 148.339C151.543 149.524 155.506 155.252 155.109 161.375L119.054 160.98L125.789 150.907Z" fill="#BF6F62"/>
<path d="M80.0266 140.636L68.7345 139.055" stroke="#321426" stroke-width="0.3494" stroke-miterlimit="10" stroke-linecap="round" stroke-linejoin="round"/>
<path d="M97.8563 73.0831L111.526 70.9104L131.535 73.8732L123.214 87.8973L97.8563 73.0831Z" fill="#BF6F62"/>
<path d="M130.742 34.3688C130.544 39.5044 134.506 43.6524 139.459 43.8499C144.412 44.0474 148.374 40.097 148.572 34.9614C148.77 29.8258 144.808 25.6779 139.855 25.4804C134.902 25.2828 130.742 29.2333 130.742 34.3688Z" fill="#8D0C8A"/>
<path d="M127.969 49.3804L127.374 75.2558H104.592L109.347 32.196L127.969 49.3804Z" fill="#BF6F62"/>
<path d="M127.572 63.4046L111.724 46.8127L127.969 50.1706L127.572 63.4046Z" fill="#20120C"/>
<path d="M132.723 7.11081C140.648 9.48107 142.232 14.8142 142.827 20.7398C143.619 27.6531 144.213 38.5168 142.034 43.8499C138.666 51.9483 131.535 56.8863 120.639 53.9235C120.639 53.9235 107.96 52.3433 106.177 33.3812C103.998 10.8637 119.45 3.16037 132.723 7.11081Z" fill="#BF6F62"/>
<path d="M139.063 30.0234C139.261 30.8135 140.053 31.406 140.846 31.2085C141.638 31.011 142.232 30.2209 142.034 29.4308C141.836 28.6407 141.044 28.0482 140.251 28.2457C139.459 28.4432 139.063 29.2333 139.063 30.0234Z" fill="#20120C"/>
<path d="M126.384 30.0234C126.582 30.8135 127.374 31.406 128.167 31.2085C128.959 31.011 129.554 30.2209 129.355 29.4308C129.157 28.6407 128.365 28.0482 127.572 28.2457C126.78 28.6407 126.384 29.2333 126.384 30.0234Z" fill="#20120C"/>
<path d="M136.289 29.4308L137.28 35.554C137.478 35.949 137.082 36.5416 136.685 36.5416L135.101 36.7391" stroke="#321426" stroke-width="0.3494" stroke-miterlimit="10" stroke-linecap="round" stroke-linejoin="round"/>
<path d="M124.997 18.3694C124.997 18.3694 129.554 17.3818 129.752 19.9496C129.752 19.9496 129.95 21.5298 125.988 22.3199C122.025 23.11 120.441 22.9124 120.044 21.3323C119.45 19.9496 122.818 18.7645 124.997 18.3694Z" fill="#20120C"/>
<path d="M142.034 18.3696C142.034 18.3696 138.27 17.382 137.676 19.7522C137.676 19.7522 137.28 21.3324 140.648 21.925C143.025 22.32 144.015 21.925 144.213 20.7398C144.61 19.7522 143.421 18.5671 142.034 18.3696Z" fill="#20120C"/>
<path d="M136.289 40.2946H127.771C127.771 40.2946 128.761 43.0599 131.931 43.2574C135.299 43.2574 136.289 40.2946 136.289 40.2946Z" fill="white"/>
<path d="M140.846 13.0364C140.846 13.0364 138.072 0.197521 116.875 1.7777C108.158 2.37026 102.611 6.12318 99.6393 10.8637C92.3093 22.1224 98.2525 39.7019 109.545 40.492L109.148 34.3688C109.148 34.3688 114.894 21.3324 112.12 13.234C111.922 13.4315 133.516 14.2216 140.846 13.0364Z" fill="#20120C"/>
<path d="M99.6393 37.9242C100.432 41.0845 103.403 43.0597 106.573 42.2696C109.743 41.4795 111.724 38.5167 110.931 35.3564C110.139 32.196 107.167 30.2208 103.998 31.0109C100.828 31.6035 98.8468 34.7638 99.6393 37.9242Z" fill="#BF6F62"/>
<path d="M128.167 1.58013L128.365 2.56774C128.365 2.56774 117.073 3.75287 111.922 10.6661C106.177 18.3695 106.177 28.6406 106.177 28.6406L103.8 28.8381L103.998 12.4438L108.95 7.30826L116.677 2.56774L122.224 0.790039L128.167 1.58013Z" fill="#8D0C8A"/>
<path d="M112.912 34.3689C114.101 39.7019 110.535 45.035 103.8 46.6152C99.0449 47.6028 96.6677 43.6524 95.479 38.3193C94.2904 32.9862 97.262 27.8506 102.017 26.6655C106.771 25.4804 111.724 29.0358 112.912 34.3689Z" fill="#8D0C8A"/>
<path d="M110.337 34.9614C111.526 40.2945 108.554 45.43 103.8 46.6152C99.0449 47.6028 94.0923 44.2449 92.9036 38.7143C91.715 33.3812 94.6866 28.2456 99.4412 27.0605C104.394 26.0729 109.148 29.6283 110.337 34.9614Z" fill="#B051AE"/>
<path d="M100.035 28.2456C100.035 28.2456 99.045 22.32 100.432 15.8017C102.215 7.50582 109.347 0.592558 117.865 0.197515C125.988 -0.197529 127.572 1.38265 127.969 1.77769C127.969 1.77769 117.073 2.17273 111.724 8.09839C105.781 14.6166 104.196 23.5051 104.592 29.4307L100.035 28.2456Z" fill="#B051AE"/>
<path d="M145.204 165.128V271" stroke="#171E21" stroke-width="1.0208" stroke-miterlimit="10"/>
<path d="M63.1875 165.128V271" stroke="#171E21" stroke-width="1.0208" stroke-miterlimit="10"/>
<path d="M329.048 165.128V271" stroke="#171E21" stroke-width="1.0208" stroke-miterlimit="10"/>
<path d="M249.012 165.128V271" stroke="#171E21" stroke-width="1.0208" stroke-miterlimit="10"/>
<path d="M118.459 157.03H34.2637V168.881H118.459V157.03Z" fill="url(#paint0_linear_0_1)"/>
<path d="M355.198 157.03H118.459V168.881H355.198V157.03Z" fill="white"/>
<path d="M178.288 151.697H245.843C247.428 151.697 248.616 152.882 248.616 154.462C248.616 156.042 247.428 157.227 245.843 157.227H178.288C176.703 157.227 175.514 156.042 175.514 154.462C175.514 152.882 176.703 151.697 178.288 151.697Z" fill="#B051AE"/>
<path d="M150.751 151.697H192.156C193.74 151.697 194.929 152.882 194.929 154.462C194.929 156.042 193.74 157.227 192.156 157.227H150.751C149.166 157.227 147.978 156.042 147.978 154.462C147.978 152.882 149.364 151.697 150.751 151.697Z" fill="#B051AE"/>
<path d="M186.41 131.155H329.048C332.614 131.155 335.387 128.389 335.387 124.834V36.5415C335.387 32.9861 332.614 30.2208 329.048 30.2208H186.41C182.844 30.2208 180.071 32.9861 180.071 36.5415V124.834C180.071 128.389 183.043 131.155 186.41 131.155Z" fill="#CB7BC9"/>
<path d="M190.769 131.155H333.208C336.774 131.155 339.548 128.389 339.548 124.834V36.5415C339.548 32.9861 336.774 30.2208 333.208 30.2208H190.769C187.203 30.2208 184.429 32.9861 184.429 36.5415V124.834C184.429 128.389 187.203 131.155 190.769 131.155Z" fill="#B051AE"/>
<path d="M251.984 75.8484L214.74 131.155H268.229L251.984 75.8484Z" fill="#8D0C8A"/>
<path d="M278.53 74.4657H254.559C252.38 74.4657 250.795 76.4409 251.192 78.6137L266.644 154.462C267.04 156.042 268.427 157.227 270.012 157.227H295.171C297.351 157.227 298.936 155.252 298.539 153.079L281.898 77.0335C281.502 75.4533 280.115 74.4657 278.53 74.4657Z" fill="#CB7BC9"/>
<path d="M243.664 151.697H287.841V157.03H243.664C242.079 157.03 240.89 155.845 240.89 154.265C240.89 152.882 242.277 151.697 243.664 151.697Z" fill="#CB7BC9"/>
<path d="M128.382 141.836L177.339 139.537L176.987 132.026L128.029 134.325C129.087 134.275 129.44 141.787 128.382 141.836Z" fill="#BDD0FB"/>
<path d="M177.252 137.666L177.089 134.215C177.032 132.997 176.016 132.071 174.827 132.127L128.247 134.315C127.305 134.359 126.524 133.814 126.49 133.089C126.48 132.872 126.703 132.687 126.993 132.673L177.907 130.282C179.081 130.227 180.988 131.547 181.069 133.287L181.295 138.087C181.372 139.726 179.637 141.13 178.535 141.181L127.752 143.567C127.317 143.587 126.956 143.328 126.941 143.009C126.913 142.4 127.527 141.877 128.324 141.839L175.499 139.624C176.513 139.576 177.3 138.696 177.252 137.666Z" fill="#673466"/>
<path d="M175.718 133.771L129.804 135.928C129.732 135.931 129.656 135.876 129.652 135.789C129.648 135.702 129.704 135.642 129.79 135.637L175.69 133.482C175.762 133.478 175.837 133.533 175.841 133.62C175.845 133.707 175.79 133.768 175.718 133.771Z" fill="#8D0C8A"/>
<path d="M175.77 134.888L129.857 137.044C129.784 137.047 129.709 136.993 129.705 136.906C129.701 136.819 129.756 136.758 129.843 136.754L175.742 134.598C175.815 134.595 175.89 134.649 175.894 134.736C175.898 134.823 175.843 134.884 175.77 134.888Z" fill="#8D0C8A"/>
<path d="M175.823 136.004L129.909 138.161C129.837 138.164 129.761 138.109 129.757 138.022C129.754 137.95 129.808 137.875 129.895 137.871L175.795 135.715C175.867 135.711 175.942 135.766 175.946 135.853C175.95 135.94 175.895 136.001 175.823 136.004Z" fill="#8D0C8A"/>
<path d="M175.875 137.121L129.961 139.277C129.889 139.281 129.814 139.226 129.81 139.139C129.806 139.052 129.861 138.991 129.948 138.987L175.847 136.831C175.919 136.828 175.995 136.883 175.999 136.97C176.003 137.057 175.948 137.117 175.875 137.121Z" fill="#8D0C8A"/>
<path d="M175.928 138.237L130.014 140.394C129.941 140.397 129.866 140.343 129.862 140.256C129.859 140.183 129.913 140.108 130 140.104L175.899 137.948C175.972 137.945 176.047 137.999 176.051 138.086C176.055 138.159 176 138.234 175.928 138.237Z" fill="#8D0C8A"/>
<path d="M182.284 141.834L182.403 144.357C182.423 144.792 182.196 145.209 181.76 145.521L181.338 145.816C180.987 146.065 181.093 146.482 181.521 146.622C181.801 146.71 181.872 146.983 181.648 147.153L181.114 147.542C180.763 147.791 180.783 148.211 181.156 148.441L181.56 148.684C181.904 148.9 181.923 149.291 181.585 149.525L181.177 149.806C180.896 150.008 180.853 150.33 181.095 150.537L181.338 150.758C181.519 150.909 181.616 151.108 181.625 151.311L181.813 155.313L124.508 158.005L123.866 144.33L182.284 141.834Z" fill="#BDD0FB"/>
<path d="M126.001 147.413L180.422 144.857C180.538 144.851 180.636 144.774 180.632 144.687C180.627 144.6 180.523 144.532 180.407 144.538L125.986 147.094C125.87 147.099 125.772 147.176 125.776 147.263C125.78 147.35 125.87 147.419 126.001 147.413Z" fill="#8D0C8A"/>
<path d="M126.112 149.791L179.243 147.295C179.359 147.29 179.457 147.213 179.453 147.126C179.449 147.039 179.344 146.971 179.228 146.976L126.097 149.472C125.981 149.477 125.883 149.555 125.887 149.642C125.891 149.729 125.982 149.797 126.112 149.791Z" fill="#8D0C8A"/>
<path d="M126.195 151.546L178.674 149.081C178.79 149.075 178.888 148.998 178.884 148.911C178.88 148.824 178.775 148.756 178.659 148.762L126.18 151.226C126.064 151.232 125.966 151.309 125.97 151.396C125.974 151.483 126.064 151.552 126.195 151.546Z" fill="#8D0C8A"/>
<path d="M122.782 143.509L183.493 140.658C183.956 140.636 184.374 140.863 184.433 141.209C184.495 141.599 184.105 141.951 183.583 141.976L127.293 144.62C126.307 144.666 125.477 145.228 125.307 145.948C124.532 149.226 124.762 152.587 125.795 156.026C126.036 156.828 127.005 157.364 128.107 157.313L183.035 154.733C183.499 154.711 183.916 154.938 183.976 155.284C184.038 155.674 183.648 156.026 183.126 156.051L123.908 158.832C122.488 158.899 121.235 158.202 120.939 157.17C119.712 152.998 119.435 148.956 120.371 145.076C120.578 144.209 121.578 143.551 122.752 143.496L122.781 143.495L122.782 143.509Z" fill="#8D0C8A"/>
</g>
<defs>
<linearGradient id="paint0_linear_0_1" x1="34.3115" y1="162.902" x2="118.575" y2="162.902" gradientUnits="userSpaceOnUse">
<stop offset="0.00314153" stop-color="#D4DAED"/>
<stop offset="0.3958" stop-color="#DDE2F3"/>
<stop offset="1" stop-color="#E6EAF9"/>
</linearGradient>
<clipPath id="clip0_0_1">
<rect width="335" height="271" fill="white" transform="translate(20)"/>
</clipPath>
</defs>
</svg>
